<svg xmlns="http://www.w3.org/2000/svg" xmlns:xlink="http://www.w3.org/1999/xlink" version="1.1" x="0px" y="0px" viewBox="0 0 125.94 90.69125" style="enable-background:new 0 0 125.94 70.553; transform: translateY(15px);" xml:space="preserve"><g><path d="M122.805,56.939V21.774h2.135c0.552,0,1-0.447,1-1c0-3.735-3.039-6.774-6.774-6.774h-4.765V8.309   c0.602,0.446,1.303,0.675,2.006,0.675c0.931,0,1.856-0.385,2.524-1.135c0.604-0.678,0.906-1.549,0.851-2.454   c-0.055-0.904-0.459-1.732-1.138-2.332L117,1.613C115.822,0.573,114.307,0,112.734,0H13.23C9.802,0,7.013,2.789,7.013,6.218   c0,0.553,0.448,1,1,1h4.417V14H6.715c-1.807,0-3.502,0.707-4.773,1.991C0.671,17.275-0.019,18.979,0,20.785   c0.006,0.548,0.452,0.989,1,0.989h2.23v41.922c0,0.553,0.448,1,1,1h1.704l-1.028,1.81c-0.176,0.31-0.174,0.689,0.005,0.997   S5.419,68,5.775,68h13.039c0.473,2.585,2.738,4.553,5.457,4.553c2.72,0,4.985-1.967,5.458-4.553h1.105   c0.473,2.585,2.738,4.553,5.458,4.553S41.277,70.585,41.75,68h1.104c0.473,2.585,2.738,4.553,5.458,4.553S53.297,70.585,53.77,68   h8.042c1.555,2.778,4.503,4.553,7.715,4.553c3.415,0,6.38-1.946,7.857-4.784c1.477,2.839,4.442,4.784,7.856,4.784   c3.415,0,6.38-1.946,7.857-4.784c1.477,2.839,4.442,4.784,7.857,4.784c4.545,0,8.298-3.442,8.796-7.856h12.054   c2.28,0,4.135-1.77,4.135-3.944C125.94,58.908,124.601,57.368,122.805,56.939z M120.805,56.809h-1.652V21.774h1.652V56.809z    M112.132,56.809V32.043c0-0.553-0.448-1-1-1h-2.954v-9.269h8.975v35.034H112.132z M108.178,56.809V33.043h1.954v23.766H108.178z    M56.827,62.696V47.445h49.352v15.251H56.827z M8.653,57.019V21.774h10.98V47h-5.416c-1.911,0-3.466,1.555-3.466,3.466   c0,1.561,1.044,2.87,2.466,3.302v3.251H8.653z M14.218,51.933c-0.808,0-1.466-0.658-1.466-1.467S13.41,49,14.218,49h5.416v2.933   H14.218z M15.218,53.933h4.416v3.086h-4.416V53.933z M21.633,21.774h1.947v35.244h-1.947V21.774z M34.891,21.774V47h-9.31V21.774   H34.891z M25.58,49h9.31v2.933h-9.31V49z M25.58,53.933h9.31v3.086h-9.31V53.933z M36.891,21.774h1.947v35.244h-1.947V21.774z    M50.908,21.774V47h-10.07V21.774H50.908z M40.838,49h10.07v2.933h-10.07V49z M40.838,53.933h10.07v3.086h-10.07V53.933z    M52.908,21.774h1.919v35.244h-1.919V21.774z M106.178,21.774v23.671H56.827V21.774H106.178z M110.53,14V7.218h1.871V14H110.53z    M99.751,14V7.218h8.779V14H99.751z M95.88,14V7.218h1.871V14H95.88z M87.945,14v-3c0-0.553-0.448-1-1-1h-8.266V7.218H93.88V14   H87.945z M30.674,14v-2h55.271v2H30.674z M19.136,14V7.218h13.841V10h-3.303c-0.552,0-1,0.447-1,1v3H19.136z M37.94,7.218V10   h-2.963V7.218H37.94z M52.347,7.218V10H39.94V7.218H52.347z M57.309,7.218V10h-2.963V7.218H57.309z M71.716,7.218V10H59.309V7.218   H71.716z M76.679,7.218V10h-2.963V7.218H76.679z M13.23,2h99.503c1.085,0,2.13,0.396,2.943,1.113l1.644,1.45   c0.278,0.245,0.443,0.583,0.465,0.952c0.022,0.37-0.101,0.727-0.348,1.003c-0.493,0.555-1.331,0.622-1.907,0.149l-1.497-1.225   c-0.047-0.039-0.104-0.06-0.157-0.089c-0.038-0.021-0.072-0.048-0.113-0.064c-0.115-0.045-0.237-0.073-0.363-0.073H9.133   C9.583,3.373,11.249,2,13.23,2z M14.43,7.218h2.707V14H14.43V7.218z M3.364,17.398C4.256,16.497,5.446,16,6.715,16h112.452   c2.29,0,4.208,1.62,4.668,3.774H2.093C2.272,18.882,2.708,18.061,3.364,17.398z M5.23,21.774h1.422v36.244c0,0.553,0.448,1,1,1   h47.174v3.678H5.23V21.774z M8.235,64.696h47.592h8.385V66H7.494L8.235,64.696z M24.272,70.553c-1.609,0-2.956-1.083-3.391-2.553   h6.783C27.228,69.47,25.881,70.553,24.272,70.553z M36.292,70.553c-1.609,0-2.957-1.083-3.392-2.553h6.784   C39.249,69.47,37.902,70.553,36.292,70.553z M48.312,70.553c-1.609,0-2.957-1.083-3.392-2.553h6.784   C51.269,69.47,49.922,70.553,48.312,70.553z M69.527,70.553c-2.089,0-4.033-0.971-5.319-2.553h1.003c0.552,0,1-0.447,1-1v-2.304   h10.091C75.816,68.003,72.967,70.553,69.527,70.553z M85.241,70.553c-3.44,0-6.288-2.55-6.775-5.856h13.551   C91.529,68.003,88.681,70.553,85.241,70.553z M100.954,70.553c-3.44,0-6.289-2.55-6.776-5.856h12.999h0.552   C107.243,68.003,104.395,70.553,100.954,70.553z M121.805,62.696h-13.627v-3.888h13.627c1.177,0,2.135,0.872,2.135,1.943   C123.94,61.824,122.982,62.696,121.805,62.696z"/><path d="M59.213,30.455v11.78c0,0.553,0.448,1,1,1H71.71c0.552,0,1-0.447,1-1v-11.78c0-3.721-3.027-6.748-6.749-6.748   c-0.779,0-1.524,0.139-2.221,0.383c-0.014,0.004-0.027,0.011-0.041,0.015c-1.583,0.566-2.897,1.701-3.684,3.164   c-0.006,0.011-0.01,0.022-0.016,0.033C59.499,28.244,59.213,29.317,59.213,30.455z M61.213,38.861l2.014,2.375h-2.014V38.861z    M65.849,41.235l-4.636-5.466v-5.314c0-0.231,0.036-0.453,0.068-0.675l9.429,11.385v0.071H65.849z M70.71,30.455v1.573   l-4.929-6.302c0.061-0.002,0.119-0.018,0.18-0.018C68.58,25.707,70.71,27.837,70.71,30.455z M63.698,26.308l7.012,8.967v2.755   l-8.578-10.357C62.545,27.107,63.081,26.646,63.698,26.308z"/><path d="M75.596,43.235h11.497c0.552,0,1-0.447,1-1v-11.78c0-3.721-3.027-6.748-6.749-6.748c-0.779,0-1.524,0.139-2.221,0.383   c-0.014,0.004-0.026,0.011-0.04,0.015c-1.583,0.566-2.897,1.7-3.684,3.163c-0.007,0.012-0.012,0.024-0.018,0.037   c-0.499,0.941-0.785,2.013-0.785,3.15v11.78C74.596,42.788,75.043,43.235,75.596,43.235z M76.596,38.861l2.014,2.375h-2.014V38.861   z M81.231,41.235l-4.636-5.466v-5.314c0-0.231,0.036-0.452,0.068-0.675l9.428,11.384v0.071H81.231z M86.092,30.455v1.572   l-4.928-6.302c0.061-0.002,0.118-0.018,0.18-0.018C83.962,25.707,86.092,27.837,86.092,30.455z M79.08,26.307l7.012,8.967v2.755   l-8.578-10.357C77.927,27.107,78.463,26.646,79.08,26.307z"/><path d="M90.977,43.235h11.497c0.552,0,1-0.447,1-1v-11.78c0-3.721-3.027-6.748-6.748-6.748c-0.779,0-1.524,0.139-2.221,0.383   c-0.014,0.004-0.027,0.011-0.041,0.015c-1.582,0.566-2.896,1.7-3.683,3.163c-0.007,0.012-0.012,0.025-0.018,0.037   c-0.499,0.941-0.785,2.012-0.785,3.15v11.78C89.977,42.788,90.425,43.235,90.977,43.235z M91.977,38.861l2.014,2.375h-2.014V38.861   z M96.613,41.235l-4.636-5.466v-5.314c0-0.231,0.036-0.452,0.068-0.675l9.428,11.384v0.071H96.613z M101.474,30.455v1.572   l-4.928-6.302c0.061-0.002,0.119-0.018,0.18-0.018C99.344,25.707,101.474,27.837,101.474,30.455z M94.462,26.308l7.012,8.967v2.755   l-8.578-10.357C93.309,27.107,93.845,26.646,94.462,26.308z"/></g>
<!-- <text x="0" y="87.553" fill="#000000" font-size="5px" font-weight="bold" font-family="'Helvetica Neue', Helvetica, Arial-Unicode, Arial, Sans-serif">Created by Amethyst Studio</text><text x="0" y="92.553" fill="#000000" font-size="5px" font-weight="bold" font-family="'Helvetica Neue', Helvetica, Arial-Unicode, Arial, Sans-serif">from the Noun Project</text> -->
</svg>