<?xml version="1.0" encoding="UTF-8"?>
<svg version="1.1" xmlns="http://www.w3.org/2000/svg" viewBox="0 0 100 90" width="1.7em" height="1.7em">
<path d="M0 0 C1.05048523 0.00607269 1.05048523 0.00607269 2.12219238 0.01226807 C2.86054321 0.00876343 3.59889404 0.00525879 4.35961914 0.00164795 C6.80661346 -0.00717336 9.25331999 -0.00131891 11.70031738 0.00543213 C13.39660701 0.00408559 15.09289627 0.00214515 16.78918457 -0.00036621 C20.34683908 -0.00331801 23.90439327 0.00098194 27.46203613 0.01031494 C32.02882879 0.02170954 36.59538638 0.01515036 41.16217041 0.00317001 C44.66566752 -0.0040471 48.16910865 -0.00176135 51.67260742 0.0034256 C53.35677111 0.00476251 55.04093984 0.00311293 56.72509766 -0.00153351 C59.07635012 -0.00659634 61.42721861 0.0011078 63.77844238 0.01226807 C64.82892761 0.00619537 64.82892761 0.00619537 65.90063477 0 C70.72178823 0.04252797 70.72178823 0.04252797 72.95031738 2.27105713 C73.20428467 4.62408447 73.20428467 4.62408447 73.20910645 7.60699463 C73.21541077 8.72155029 73.22171509 9.83610596 73.22821045 10.98443604 C73.22416199 12.192771 73.22011353 13.40110596 73.21594238 14.64605713 C73.21785583 15.8814624 73.21976929 17.11686768 73.22174072 18.38970947 C73.22345349 21.6769712 73.21538437 24.964045 73.20422363 28.25128174 C73.20032136 30.26900243 73.20420909 32.28654914 73.21105957 34.30426025 C73.22337742 38.16827541 73.22192716 42.03203141 73.21594238 45.89605713 C73.21999084 47.10439209 73.22403931 48.31272705 73.22821045 49.55767822 C73.21875397 51.22951172 73.21875397 51.22951172 73.20910645 52.93511963 C73.20751526 53.91947998 73.20592407 54.90384033 73.20428467 55.91802979 C72.95031738 58.27105713 72.95031738 58.27105713 70.95031738 60.27105713 C68.52201677 60.46920897 66.20777719 60.5438898 63.77844238 60.52984619 C63.04009155 60.53335083 62.30174072 60.53685547 61.54101562 60.54046631 C59.0940213 60.54928762 56.64731478 60.54343317 54.20031738 60.53668213 C52.50402775 60.53802867 50.8077385 60.5399691 49.1114502 60.54248047 C45.55379569 60.54543227 41.9962415 60.54113232 38.43859863 60.53179932 C33.87180598 60.52040472 29.30524838 60.52696389 24.73846436 60.53894424 C21.23496724 60.54616135 17.73152612 60.54387561 14.22802734 60.53868866 C12.54386365 60.53735175 10.85969492 60.53900133 9.17553711 60.54364777 C6.82428464 60.5487106 4.47341615 60.54100645 2.12219238 60.52984619 C1.4218689 60.53389465 0.72154541 60.53794312 0 60.54211426 C-4.82115346 60.49958628 -4.82115346 60.49958628 -7.04968262 58.27105713 C-7.3036499 55.91802979 -7.3036499 55.91802979 -7.30847168 52.93511963 C-7.314776 51.82056396 -7.32108032 50.7060083 -7.32757568 49.55767822 C-7.32352722 48.34934326 -7.31947876 47.1410083 -7.31530762 45.89605713 C-7.31722107 44.66065186 -7.31913452 43.42524658 -7.32110596 42.15240479 C-7.32281872 38.86514306 -7.31474961 35.57806926 -7.30358887 32.29083252 C-7.29968659 30.27311183 -7.30357432 28.25556512 -7.3104248 26.237854 C-7.32274266 22.37383884 -7.3212924 18.51008285 -7.31530762 14.64605713 C-7.31935608 13.43772217 -7.32340454 12.22938721 -7.32757568 10.98443604 C-7.32127136 9.86988037 -7.31496704 8.75532471 -7.30847168 7.60699463 C-7.30688049 6.62263428 -7.30528931 5.63827393 -7.3036499 4.62408447 C-6.79570854 -0.08203313 -4.11728473 0.03631906 0 0 Z M-2.04968262 2.27105713 C-0.92366185 5.64911943 -0.17985055 6.20095934 2.59094238 8.26715088 C3.70275879 9.10536377 3.70275879 9.10536377 4.83703613 9.96051025 C5.61691895 10.53736572 6.39680176 11.11422119 7.20031738 11.70855713 C8.72666787 12.85267651 10.25271699 13.99719806 11.77844238 15.14215088 C12.49967285 15.68210693 13.22090332 16.22206299 13.96398926 16.77838135 C20.75598779 21.88239794 20.75598779 21.88239794 21.95031738 24.27105713 C20.54072754 24.01002197 20.54072754 24.01002197 19.10266113 23.74371338 C14.21539932 23.04553312 9.42229216 23.40105223 4.51281738 23.70855713 C3.12933105 23.78686768 3.12933105 23.78686768 1.71789551 23.86676025 C-0.53839798 23.99535729 -2.7941229 24.13026423 -5.04968262 24.27105713 C-5.04968262 24.93105713 -5.04968262 25.59105713 -5.04968262 26.27105713 C6.17031738 26.27105713 17.39031738 26.27105713 28.95031738 26.27105713 C28.95031738 18.35105713 28.95031738 10.43105713 28.95031738 2.27105713 C28.29031738 2.27105713 27.63031738 2.27105713 26.95031738 2.27105713 C26.95031738 8.54105713 26.95031738 14.81105713 26.95031738 21.27105713 C16.95562707 14.11269785 16.95562707 14.11269785 12.24328613 10.29058838 C11.6234082 9.79019043 11.00353027 9.28979248 10.36486816 8.77423096 C9.14429242 7.78357912 7.93021132 6.78486323 6.7232666 5.77764893 C3.43390558 3.11463118 2.33167394 2.27105713 -2.04968262 2.27105713 Z M5.95031738 2.27105713 C10.08304803 6.43073548 10.08304803 6.43073548 14.46594238 10.16558838 C15.07695801 10.64576416 15.68797363 11.12593994 16.31750488 11.6206665 C16.93883301 12.10342041 17.56016113 12.58617432 18.20031738 13.08355713 C18.83711426 13.58564697 19.47391113 14.08773682 20.13000488 14.6050415 C22.7659521 17.12029222 22.7659521 17.12029222 25.95031738 18.27105713 C25.95031738 12.99105713 25.95031738 7.71105713 25.95031738 2.27105713 C19.35031738 2.27105713 12.75031738 2.27105713 5.95031738 2.27105713 Z M29.95031738 2.27105713 C29.95031738 10.52105713 29.95031738 18.77105713 29.95031738 27.27105713 C18.40031738 27.27105713 6.85031738 27.27105713 -5.04968262 27.27105713 C-5.04968262 29.25105713 -5.04968262 31.23105713 -5.04968262 33.27105713 C6.50031738 33.27105713 18.05031738 33.27105713 29.95031738 33.27105713 C28.95031738 34.27105713 28.95031738 34.27105713 25.71569824 34.38458252 C24.28217612 34.38442344 22.84864826 34.3787312 21.41516113 34.36871338 C20.28528526 34.36659096 20.28528526 34.36659096 19.13258362 34.36442566 C16.71762179 34.35881089 14.30275137 34.34625596 11.88781738 34.33355713 C10.25435518 34.32854403 8.62089152 34.32398079 6.98742676 34.31988525 C2.97502153 34.30883667 -1.03731502 34.29156219 -5.04968262 34.27105713 C-5.04968262 34.93105713 -5.04968262 35.59105713 -5.04968262 36.27105713 C1.55031738 36.27105713 8.15031738 36.27105713 14.95031738 36.27105713 C9.32531738 41.89605713 9.32531738 41.89605713 6.18078613 44.38433838 C5.5201416 44.90963135 4.85949707 45.43492432 4.17883301 45.97613525 C3.16853027 46.77180908 3.16853027 46.77180908 2.13781738 47.58355713 C1.44494629 48.13334229 0.7520752 48.68312744 0.03820801 49.24957275 C-1.65552817 50.59288076 -3.35229659 51.932364 -5.04968262 53.27105713 C-4.71968262 54.26105713 -4.38968262 55.25105713 -4.04968262 56.27105713 C0.79713074 53.84765045 4.82645635 50.83136615 8.95031738 47.33355713 C21.42297233 36.77354304 21.42297233 36.77354304 26.95031738 36.27105713 C26.62031738 37.26105713 26.29031738 38.25105713 25.95031738 39.27105713 C25.93485478 40.75459866 25.98195941 42.23935287 26.07141113 43.72027588 C26.11975098 44.56783447 26.16809082 45.41539307 26.21789551 46.28863525 C26.27396973 47.16970947 26.33004395 48.05078369 26.38781738 48.95855713 C26.46612793 50.2975708 26.46612793 50.2975708 26.54602051 51.66363525 C26.67559612 53.86642064 26.81227724 56.06878598 26.95031738 58.27105713 C29.92031738 58.27105713 32.89031738 58.27105713 35.95031738 58.27105713 C35.95031738 50.02105713 35.95031738 41.77105713 35.95031738 33.27105713 C47.50031738 33.27105713 59.05031738 33.27105713 70.95031738 33.27105713 C70.95031738 31.29105713 70.95031738 29.31105713 70.95031738 27.27105713 C59.40031738 27.27105713 47.85031738 27.27105713 35.95031738 27.27105713 C35.95031738 19.02105713 35.95031738 10.77105713 35.95031738 2.27105713 C33.97031738 2.27105713 31.99031738 2.27105713 29.95031738 2.27105713 Z M36.95031738 2.27105713 C36.95031738 10.19105713 36.95031738 18.11105713 36.95031738 26.27105713 C48.17031738 26.27105713 59.39031738 26.27105713 70.95031738 26.27105713 C70.95031738 25.61105713 70.95031738 24.95105713 70.95031738 24.27105713 C64.35031738 24.27105713 57.75031738 24.27105713 50.95031738 24.27105713 C56.57531738 18.64605713 56.57531738 18.64605713 59.71984863 16.15777588 C60.38049316 15.63248291 61.0411377 15.10718994 61.72180176 14.565979 C62.39533691 14.03552979 63.06887207 13.50508057 63.76281738 12.95855713 C64.45568848 12.40877197 65.14855957 11.85898682 65.86242676 11.2925415 C67.55616293 9.9492335 69.25293136 8.60975026 70.95031738 7.27105713 C70.45531738 5.78605713 70.45531738 5.78605713 69.95031738 4.27105713 C65.10350403 6.69446381 61.07417841 9.71074811 56.95031738 13.20855713 C44.47766244 23.76857121 44.47766244 23.76857121 38.95031738 24.27105713 C39.13781738 21.45855713 39.13781738 21.45855713 39.95031738 18.27105713 C41.58418616 17.21832231 43.26024218 16.23096525 44.95031738 15.27105713 C47.42002061 13.48426024 49.80794726 11.59713977 52.20031738 9.70855713 C52.83711426 9.21420166 53.47391113 8.71984619 54.13000488 8.21051025 C57.53351744 5.67303536 57.53351744 5.67303536 59.95031738 2.27105713 C52.36031738 2.27105713 44.77031738 2.27105713 36.95031738 2.27105713 Z M-5.04968262 10.27105713 C-5.04968262 14.56105713 -5.04968262 18.85105713 -5.04968262 23.27105713 C0.23031738 23.27105713 5.51031738 23.27105713 10.95031738 23.27105713 C7.56296439 19.88370413 4.41126294 16.90842553 0.70031738 13.95855713 C-0.17108887 13.26117432 -1.04249512 12.5637915 -1.94030762 11.84527588 C-3.74457992 10.17137402 -3.74457992 10.17137402 -5.04968262 10.27105713 Z M62.95031738 15.64605713 C62.29547363 16.15394775 61.64062988 16.66183838 60.96594238 17.18511963 C60.34203613 17.67496338 59.71812988 18.16480713 59.07531738 18.66949463 C58.50039551 19.11986084 57.92547363 19.57022705 57.33312988 20.03424072 C55.81081956 21.24294652 55.81081956 21.24294652 54.95031738 23.27105713 C60.23031738 23.27105713 65.51031738 23.27105713 70.95031738 23.27105713 C70.95031738 18.98105713 70.95031738 14.69105713 70.95031738 10.27105713 C68.34488882 10.27105713 65.04330398 13.99803619 62.95031738 15.64605713 Z M36.95031738 34.27105713 C36.95031738 42.19105713 36.95031738 50.11105713 36.95031738 58.27105713 C37.61031738 58.27105713 38.27031738 58.27105713 38.95031738 58.27105713 C38.95031738 52.00105713 38.95031738 45.73105713 38.95031738 39.27105713 C48.9450077 46.42941641 48.9450077 46.42941641 53.65734863 50.25152588 C54.58716553 51.0021228 54.58716553 51.0021228 55.5357666 51.7678833 C56.75634234 52.75853514 57.97042345 53.75725103 59.17736816 54.76446533 C62.46672919 57.42748308 63.56896083 58.27105713 67.95031738 58.27105713 C66.41693912 54.05911938 63.31005284 51.9550676 59.82531738 49.39605713 C59.24362793 48.95842041 58.66193848 48.52078369 58.06262207 48.06988525 C55.50391745 46.1483733 52.92618154 44.25329952 50.34875488 42.35699463 C49.63977051 41.83363525 48.93078613 41.31027588 48.20031738 40.77105713 C47.58672363 40.32761963 46.97312988 39.88418213 46.34094238 39.42730713 C44.95031738 38.27105713 44.95031738 38.27105713 43.95031738 36.27105713 C45.35990723 36.53209229 45.35990723 36.53209229 46.79797363 36.79840088 C51.68523545 37.49658114 56.47834261 37.14106203 61.38781738 36.83355713 C62.77130371 36.75524658 62.77130371 36.75524658 64.18273926 36.675354 C66.43903274 36.54675697 68.69475767 36.41185003 70.95031738 36.27105713 C70.95031738 35.61105713 70.95031738 34.95105713 70.95031738 34.27105713 C59.73031738 34.27105713 48.51031738 34.27105713 36.95031738 34.27105713 Z M-5.04968262 37.27105713 C-5.04968262 41.56105713 -5.04968262 45.85105713 -5.04968262 50.27105713 C0.6012281 46.70206088 5.89191315 42.63967896 10.95031738 38.27105713 C10.95031738 37.94105713 10.95031738 37.61105713 10.95031738 37.27105713 C5.67031738 37.27105713 0.39031738 37.27105713 -5.04968262 37.27105713 Z M54.95031738 37.27105713 C58.33767038 40.65841013 61.48937183 43.63368873 65.20031738 46.58355713 C66.07172363 47.28093994 66.94312988 47.97832275 67.84094238 48.69683838 C69.64521469 50.37074024 69.64521469 50.37074024 70.95031738 50.27105713 C70.95031738 45.98105713 70.95031738 41.69105713 70.95031738 37.27105713 C65.67031738 37.27105713 60.39031738 37.27105713 54.95031738 37.27105713 Z M39.95031738 42.27105713 C39.95031738 47.55105713 39.95031738 52.83105713 39.95031738 58.27105713 C46.55031738 58.27105713 53.15031738 58.27105713 59.95031738 58.27105713 C55.81758673 54.11137877 55.81758673 54.11137877 51.43469238 50.37652588 C50.82367676 49.8963501 50.21266113 49.41617432 49.58312988 48.92144775 C48.96180176 48.43869385 48.34047363 47.95593994 47.70031738 47.45855713 C46.74512207 46.70542236 46.74512207 46.70542236 45.77062988 45.93707275 C43.13468266 43.42182204 43.13468266 43.42182204 39.95031738 42.27105713 Z M16.51281738 48.58355713 C15.7232666 49.17845947 14.93371582 49.77336182 14.12023926 50.3862915 C13.3642041 50.96314697 12.60816895 51.54000244 11.82922363 52.13433838 C11.13385498 52.66325684 10.43848633 53.19217529 9.7220459 53.73712158 C7.71266294 55.33940793 7.71266294 55.33940793 5.95031738 58.27105713 C12.55031738 58.27105713 19.15031738 58.27105713 25.95031738 58.27105713 C25.95031738 52.99105713 25.95031738 47.71105713 25.95031738 42.27105713 C22.90533224 42.27105713 18.85278298 46.79484257 16.51281738 48.58355713 Z " fill="#000000" transform="translate(17.0496826171875,19.72894287109375)"/>
<path d="M0 0 C1 4 1 4 1 4 Z " fill="#000000" transform="translate(56,29)"/>
<path d="" fill="#000000" transform="translate(0,0)"/>
<path d="" fill="#000000" transform="translate(0,0)"/>
</svg>
