<svg xmlns="http://www.w3.org/2000/svg" version="1.1" viewBox="-5.0 -10.0 110.0 135.0">
 <path d="m27.082 75c-2.6953 0-5.0156 1.75-5.8828 4.168h-6.6172c-1.1484 0-2.082 0.92969-2.082 2.082 0 0.55078 0.21875 1.082 0.60938 1.4727s0.92188 0.60938 1.4727 0.60938h6.6172c0.86719 2.418 3.1875 4.168 5.8828 4.168 2.6992 0 5.0195-1.75 5.8867-4.168h52.449c0.55078 0 1.082-0.21875 1.4727-0.60938s0.60938-0.92188 0.60938-1.4727-0.21875-1.082-0.60938-1.4727-0.92188-0.60938-1.4727-0.60938h-52.449c-0.86719-2.418-3.1875-4.168-5.8867-4.168z"/>
 <path d="m27.082 12.5c-5.7344 0-10.414 4.6836-10.414 10.418v37.5c0 5.7344 4.6797 10.414 10.414 10.414h45.836c5.7344 0 10.414-4.6797 10.414-10.414v-37.5c0-5.7344-4.6797-10.418-10.414-10.418zm0 4.168h45.836c3.4961 0 6.25 2.75 6.25 6.25v37.5c0 2.0664-0.96875 3.8633-2.4766 4.9961l-34.164-34.164c-1.332-1.332-3.1406-2.082-5.0273-2.082s-3.6953 0.75-5.0273 2.082l-11.641 11.637v-19.969c0-3.5 2.7539-6.25 6.25-6.25z"/>
 <path d="m64.582 25c-3.4258 0-6.25 2.8242-6.25 6.25s2.8242 6.25 6.25 6.25c3.4297 0 6.25-2.8242 6.25-6.25s-2.8203-6.25-6.25-6.25z"/>
<!-- <text x="0.0" y="117.5" font-size="5.0" font-weight="bold" font-family="Arbeit Regular, Helvetica, Arial-Unicode, Arial, Sans-serif" fill="#000000">Created by Ian Anandara</text><text x="0.0" y="122.5" font-size="5.0" font-weight="bold" font-family="Arbeit Regular, Helvetica, Arial-Unicode, Arial, Sans-serif" fill="#000000">from Noun Project</text> -->
</svg>