<?xml version="1.0" encoding="UTF-8"?>
<svg version="1.1" xmlns="http://www.w3.org/2000/svg" viewBox="-50 0 550 425" width="1.5em" height="1.5em">
<path d="M0 0 C1.28615204 -0.00570007 2.57230408 -0.01140015 3.89743042 -0.01727295 C6.60496398 -0.02766691 9.31246895 -0.0335825 12.02001953 -0.03710938 C14.72653978 -0.04145526 17.43273426 -0.05521852 20.13916016 -0.078125 C44.16543413 -0.2659449 67.9741427 1.06969517 91.6171875 5.578125 C92.75833008 5.79017578 93.89947266 6.00222656 95.07519531 6.22070312 C102.00498927 7.54233472 108.89823064 8.98973896 115.7421875 10.703125 C116.4738916 10.88020996 117.2055957 11.05729492 117.95947266 11.23974609 C125.23090848 13.18778748 130.9810383 16.1201955 135.18662071 22.5504818 C138.79606374 28.83210432 138.82643484 34.50374465 138.7406311 41.61416626 C138.74612173 42.94941864 138.75423397 44.28466234 138.76471841 45.61988485 C138.78577352 49.26489918 138.76971426 52.90892411 138.74721742 56.55389452 C138.72946088 60.49396405 138.74644104 64.43390914 138.75894165 68.37397766 C138.77787887 76.08242006 138.76475301 83.79048694 138.74041577 91.49890138 C138.71312062 100.47995071 138.71645625 109.46091146 138.72068243 118.44199173 C138.72705635 134.46758966 138.70375925 150.49300955 138.66455078 166.51855469 C138.62653218 182.06190409 138.61237971 197.60504493 138.62353516 213.1484375 C138.63565492 230.08548336 138.63528995 247.02243761 138.61256349 263.95947587 C138.61014897 265.76588527 138.607737 267.57229467 138.60532761 269.37870407 C138.60351699 270.71180213 138.60351699 270.71180213 138.6016698 272.07183147 C138.59391704 278.32944956 138.59469652 284.58703351 138.5984993 290.84465408 C138.60274655 298.47087685 138.59226962 306.09691713 138.56327219 313.72308852 C138.54880067 317.61274194 138.54061588 321.50212982 138.54975891 325.39180565 C138.55943325 329.61014914 138.53805355 333.82776753 138.51358032 338.04605103 C138.52113897 339.2727034 138.52869762 340.49935577 138.53648531 341.76317942 C138.45606512 349.5877428 137.49561186 355.04638141 132.31640625 361.19140625 C124.80740718 367.26670622 118.54524791 368.90878073 108.9921875 368.203125 C104.30849045 367.42333795 99.69021085 366.42601101 95.05926514 365.38214111 C83.89099725 362.87794896 72.74591287 360.64533127 61.3671875 359.328125 C60.44147949 359.22072998 59.51577148 359.11333496 58.56201172 359.00268555 C44.00723596 357.44946559 29.49142473 356.99822294 14.8671875 357.015625 C13.99879242 357.01589691 13.13039734 357.01616882 12.23568726 357.01644897 C-10.38733047 357.04874137 -32.78459354 358.65523869 -55.25854492 361.23754883 C-74.09683936 363.34970889 -74.09683936 363.34970889 -79.1328125 360.328125 C-82.27007067 356.77256574 -82.42862242 354.08245355 -82.33203125 349.4609375 C-82.0078125 347.203125 -82.0078125 347.203125 -80.1953125 344.265625 C-71.52644147 338.65635551 -58.31872846 339.33239428 -48.22241211 338.39819336 C-45.47512461 338.14338999 -42.72877495 337.87989861 -39.98242188 337.61523438 C-22.16685017 335.92171534 -4.46709888 334.99230052 13.4296875 335.015625 C14.29758911 335.01622925 15.16549072 335.0168335 16.05969238 335.01745605 C47.80098656 335.07700275 78.97121396 338.36923972 109.87109375 345.80761719 C112.28794949 346.32532811 112.28794949 346.32532811 115.9921875 346.203125 C117.25017026 343.68715948 117.11985266 341.97229745 117.12361526 339.15525913 C117.12745641 338.08024129 117.13129755 337.00522346 117.1352551 335.89762932 C117.13395537 334.11181927 117.13395537 334.11181927 117.13262939 332.28993225 C117.13560052 331.03260597 117.13857164 329.77527969 117.1416328 328.47985262 C117.14972084 324.97847435 117.15149337 321.47711656 117.15223026 317.97573006 C117.15407766 314.20402417 117.16162332 310.43232899 117.16836548 306.66062927 C117.18196146 298.4087448 117.1879753 290.15686517 117.19237614 281.90497136 C117.19513605 276.75602251 117.1993729 271.60707555 117.20388031 266.45812798 C117.21607391 252.2119728 117.22637351 237.96581914 117.2297554 223.71965885 C117.22997497 222.80745951 117.23019453 221.89526018 117.23042075 220.95541843 C117.23063903 220.04099703 117.23085731 219.12657563 117.2310822 218.18444449 C117.23152567 216.3313777 117.23197224 214.47831092 117.23242188 212.62524414 C117.2326433 211.70605273 117.23286473 210.78686131 117.23309287 209.83981561 C117.23704317 194.93660341 117.25450383 180.03344003 117.2777814 165.13024671 C117.30146803 149.84222918 117.313956 134.55423619 117.31512332 119.26620001 C117.31604152 110.67728259 117.32183032 102.08842882 117.33994293 93.49952888 C117.35530761 86.18776486 117.36048592 78.87608413 117.35220483 71.56430704 C117.34828555 67.83129251 117.34928973 64.09844591 117.36326218 60.36545181 C117.37824911 56.32461233 117.37017271 52.28415485 117.35968018 48.24330139 C117.36773658 47.05499208 117.37579298 45.86668277 117.38409352 44.64236408 C117.37420876 43.02592571 117.37420876 43.02592571 117.3641243 41.37683201 C117.36472139 40.44342442 117.36531847 39.51001683 117.36593366 38.54832417 C116.92006045 35.75053893 116.22507948 34.89188214 113.9921875 33.203125 C111.58495043 32.30740957 111.58495043 32.30740957 108.8125 31.73828125 C107.75224609 31.49746826 106.69199219 31.25665527 105.59960938 31.00854492 C104.45041016 30.76338135 103.30121094 30.51821777 102.1171875 30.265625 C100.33538086 29.8775769 100.33538086 29.8775769 98.51757812 29.48168945 C77.35089946 25.02678407 55.7034233 22.08366 34.05859375 22 C32.84114471 21.99284973 31.62369568 21.98569946 30.36935425 21.97833252 C26.4311116 21.96050293 22.49296239 21.953125 18.5546875 21.953125 C17.87828846 21.953125 17.20188942 21.953125 16.50499344 21.953125 C-4.49783478 21.96306443 -25.24928606 22.42616292 -46.12591553 24.86724854 C-49.42518495 25.25176851 -52.72549079 25.62666969 -56.02587891 26.00146484 C-81.68440662 28.92793602 -107.31956774 32.04449282 -132.92578125 35.3984375 C-133.60613371 35.48754395 -134.28648617 35.57665039 -134.98745537 35.66845703 C-138.36079997 36.1104771 -141.73407047 36.55306126 -145.10733032 36.99572754 C-167.38190525 39.91789434 -189.5923834 42.65355673 -212.0078125 44.203125 C-213.66799894 44.33294781 -215.32815868 44.4631129 -216.98828125 44.59375 C-257.82356476 47.53250118 -299.96585003 45.14917992 -339.81591797 35.77807617 C-340.6926416 35.57287354 -341.56936523 35.3676709 -342.47265625 35.15625 C-343.61142212 34.88022949 -343.61142212 34.88022949 -344.77319336 34.59863281 C-347.22353025 34.16494487 -349.52437764 34.13638218 -352.0078125 34.203125 C-353.26579526 36.71909052 -353.13547766 38.43395255 -353.13924026 41.25099087 C-353.14308141 42.32600871 -353.14692255 43.40102654 -353.1508801 44.50862068 C-353.15001362 45.69916071 -353.14914713 46.88970075 -353.14825439 48.11631775 C-353.15122552 49.37364403 -353.15419664 50.63097031 -353.1572578 51.92639738 C-353.16534584 55.42777565 -353.16711837 58.92913344 -353.16785526 62.43051994 C-353.16970266 66.20222583 -353.17724832 69.97392101 -353.18399048 73.74562073 C-353.19758646 81.9975052 -353.2036003 90.24938483 -353.20800114 98.50127864 C-353.21076105 103.65022749 -353.2149979 108.79917445 -353.21950531 113.94812202 C-353.23169891 128.1942772 -353.24199851 142.44043086 -353.2453804 156.68659115 C-353.24559997 157.59879049 -353.24581953 158.51098982 -353.24604575 159.45083157 C-353.24626403 160.36525297 -353.24648231 161.27967437 -353.2467072 162.22180551 C-353.24715067 164.0748723 -353.24759724 165.92793908 -353.24804688 167.78100586 C-353.2482683 168.70019727 -353.24848973 169.61938869 -353.24871787 170.56643439 C-353.25266817 185.46964659 -353.27012883 200.37280997 -353.2934064 215.27600329 C-353.31709303 230.56402082 -353.329581 245.85201381 -353.33074832 261.14004999 C-353.33166652 269.72896741 -353.33745532 278.31782118 -353.35556793 286.90672112 C-353.37093261 294.21848514 -353.37611092 301.53016587 -353.36782983 308.84194296 C-353.36391055 312.57495749 -353.36491473 316.30780409 -353.37888718 320.04079819 C-353.39387411 324.08163767 -353.38579771 328.12209515 -353.37530518 332.16294861 C-353.38336158 333.35125792 -353.39141798 334.53956723 -353.39971852 335.76388592 C-353.39312868 336.8415115 -353.38653883 337.91913709 -353.3797493 339.02941799 C-353.38034639 339.96282558 -353.38094347 340.89623317 -353.38155866 341.85792583 C-352.93355773 344.66906214 -352.27027665 345.52436013 -350.0078125 347.203125 C-346.91451169 348.2172914 -346.91451169 348.2172914 -343.3046875 348.921875 C-342.30668121 349.1366021 -342.30668121 349.1366021 -341.28851318 349.35566711 C-339.11418991 349.81830684 -336.93664288 350.26223205 -334.7578125 350.703125 C-334.01007568 350.85719818 -333.26233887 351.01127136 -332.49194336 351.17001343 C-314.12211557 354.94696671 -295.91020292 357.20900342 -277.1953125 358.390625 C-276.52064941 358.43377838 -275.84598633 358.47693176 -275.15087891 358.52139282 C-258.84848888 359.53581133 -242.62175581 359.38073199 -226.3203125 358.453125 C-225.57210236 358.41221741 -224.82389221 358.37130981 -224.05300903 358.3291626 C-209.65761885 357.52938728 -195.33994456 356.13984996 -181.01489258 354.52441406 C-158.91791478 352.05706363 -158.91791478 352.05706363 -153.8828125 355.078125 C-150.74555433 358.63368426 -150.58700258 361.32379645 -150.68359375 365.9453125 C-151.0078125 368.203125 -151.0078125 368.203125 -152.8203125 371.140625 C-161.20863288 376.56836172 -173.88713999 376.03286225 -183.67626953 377.00805664 C-186.23917276 377.26376526 -188.80123746 377.5268494 -191.36328125 377.79101562 C-196.24231934 378.28950699 -201.12402071 378.7538499 -206.0078125 379.203125 C-207.17497803 379.31350098 -208.34214355 379.42387695 -209.54467773 379.53759766 C-221.85282061 380.53330049 -234.21325374 380.42607692 -246.5534668 380.44335938 C-250.50911948 380.44983619 -254.46439076 380.484038 -258.41992188 380.515625 C-289.89492875 380.64669124 -320.74550255 376.96631568 -351.3828125 369.640625 C-352.17896973 369.45516113 -352.97512695 369.26969727 -353.79541016 369.07861328 C-360.07675237 367.48598644 -365.02366884 364.8023948 -369.2578125 359.765625 C-369.73734375 359.21003906 -370.216875 358.65445312 -370.7109375 358.08203125 C-373.48793937 354.05872433 -374.25806981 350.41853458 -374.26508141 345.58143902 C-374.2715303 344.45476399 -374.27797919 343.32808896 -374.2846235 342.16727227 C-374.2815263 340.93440808 -374.2784291 339.7015439 -374.27523804 338.43132019 C-374.27976915 337.11778873 -374.28430026 335.80425727 -374.28896868 334.45092183 C-374.30120542 330.80633145 -374.30093743 327.16183282 -374.29857993 323.51722658 C-374.29817193 319.5859583 -374.30920929 315.65471951 -374.31869507 311.72346497 C-374.33530978 304.0218197 -374.34080483 296.32020504 -374.34191982 288.61854335 C-374.34287008 282.35823805 -374.34697928 276.09794286 -374.35332108 269.83764076 C-374.37093485 252.08901753 -374.38015975 234.3404185 -374.37866013 216.59178647 C-374.37858022 215.63490269 -374.3785003 214.67801892 -374.37841797 213.69213867 C-374.37833621 212.73408671 -374.37825445 211.77603474 -374.37817021 210.7889509 C-374.37735729 195.26203506 -374.39649603 179.73521623 -374.4246947 164.20832845 C-374.45341959 148.26590966 -374.46723521 132.32353818 -374.46550715 116.38109285 C-374.46484311 107.430429 -374.47034165 98.47986684 -374.49186325 89.5292263 C-374.51006987 81.9084048 -374.51442669 74.28773109 -374.5008444 66.66689726 C-374.49431206 62.77928141 -374.49420691 58.89194912 -374.5115509 55.0043602 C-374.53016811 50.78798553 -374.51773416 46.57226806 -374.50228882 42.35588074 C-374.51257594 41.12970872 -374.52286307 39.9035367 -374.53346193 38.64020795 C-374.46853242 30.63132703 -373.44060126 25.19183097 -368.078125 18.9609375 C-360.27636318 12.41247075 -354.05546827 11.62762887 -344.0078125 12.203125 C-339.4940243 12.92070333 -335.07704292 13.95556191 -330.6328125 15.015625 C-318.46196671 17.75568771 -306.41671009 19.92003685 -294.0078125 21.203125 C-293.02151855 21.30608887 -292.03522461 21.40905273 -291.01904297 21.51513672 C-242.07465293 26.38113309 -193.53798882 21.08398673 -144.99333191 14.75550842 C-130.71452207 12.89633178 -116.42648826 11.11233408 -102.13613224 9.34431267 C-98.20528391 8.85791732 -94.27467534 8.3697761 -90.34469604 7.87640381 C-74.66700027 5.90831825 -58.98959594 4.02403315 -43.26171875 2.5 C-42.04338852 2.38158752 -40.82505829 2.26317505 -39.56980896 2.14117432 C-26.37929118 0.89975925 -13.25133935 0.04741329 0 0 Z " fill="#000000" transform="translate(374.0078125,65.796875)"/>
<path d="M0 0 C0.64179199 0.21430664 1.28358398 0.42861328 1.94482422 0.64941406 C27.46325244 9.39531588 48.09453794 27.79036459 60.01855469 51.88232422 C71.17158053 75.9473357 73.2688638 105.01742266 64.23632812 130.12255859 C54.42592345 155.88957472 35.87792584 176.21409037 11 188 C-13.31487291 198.44677676 -40.9727807 199.97801835 -66 191 C-71.51238218 188.67219442 -76.77751855 185.91212736 -82 183 C-82.98871094 182.45472656 -83.97742188 181.90945313 -84.99609375 181.34765625 C-107.17108393 168.18427311 -122.5003167 145.6887195 -129 121 C-135.27761314 93.92881597 -131.02472802 66.00101748 -116.75 42.3125 C-100.99785091 18.96431457 -78.68855217 2.55476592 -50.83984375 -3.13671875 C-34.19994565 -5.96913346 -16.03706813 -5.38470901 0 0 Z M-92.3125 44.6875 C-107.42036233 63.84869125 -112.50643786 86.22275305 -109.73193359 110.32910156 C-107.50976538 123.34780136 -100.59208596 136.99489195 -92 147 C-91.50371094 147.63808594 -91.00742188 148.27617187 -90.49609375 148.93359375 C-78.01039921 164.36771736 -58.93303017 172.8087441 -39.6484375 175.4609375 C-20.10383729 177.44628064 0.00821837 172.60509796 15.75 160.5625 C17.17427837 159.3841402 18.59126327 158.19689662 20 157 C20.66515625 156.47921875 21.3303125 155.9584375 22.015625 155.421875 C35.69255365 144.32956279 46.15360741 125.58554499 48 108 C49.55107627 83.97378441 45.16024352 62.52072852 29 44 C27.84177734 42.54787109 27.84177734 42.54787109 26.66015625 41.06640625 C15.91563441 28.19475539 -2.51571968 19.13005023 -19 17 C-47.3232147 14.70867249 -73.22756479 23.04628732 -92.3125 44.6875 Z " fill="#000000" transform="translate(287,160)"/>
<path d="M0 0 C3.50290345 3.06504052 4.82221283 4.89376872 5.5625 9.5 C4.9051093 13.59043104 3.59081908 15.79957644 1 19 C-2.19378082 20.59689041 -5.52521315 20.37348957 -9 20 C-11.87472735 18.75011855 -13.44101438 17.74531416 -15.3125 15.25 C-16.32815881 11.9260257 -16.41796486 9.46313738 -16 6 C-12.22042203 -0.51250358 -7.16153581 -2.2432048 0 0 Z " fill="#000000" transform="translate(263,414)"/>
<!-- <text x="0.0" y="117.5" font-size="5.0" font-weight="bold" font-family="Arbeit Regular, Helvetica, Arial-Unicode, Arial, Sans-serif" fill="#000000">Created by Cherry</text><text x="0.0" y="122.5" font-size="5.0" font-weight="bold" font-family="Arbeit Regular, Helvetica, Arial-Unicode, Arial, Sans-serif" fill="#000000">from Noun Project</text> -->
<a href="https://www.flaticon.com/free-icons/japan" title="japan icons">Japan icons created by Freepik - Flaticon</a>
</svg>
