<svg xmlns="http://www.w3.org/2000/svg" xmlns:xlink="http://www.w3.org/1999/xlink" version="1.1" x="0px" y="0px" viewBox="0 0 30 37.5" style="width: 90%; height: auto; transform: translateY(10px);" xml:space="preserve"><g transform="translate(-510 -500)"><g xmlns="http://www.w3.org/2000/svg" xmlns:xlink="http://www.w3.org/1999/xlink"><path d="M528,501c-4.739,0-8.7,3.3-9.73,7.727c-3.674,1.479-6.27,5.07-6.27,9.273c0,5.523,4.478,10,10,10    c4.739,0,8.7-3.301,9.73-7.727c3.674-1.479,6.27-5.07,6.27-9.273C538,505.477,533.522,501,528,501z M522,527c-4.963,0-9-4.037-9-9    c0-3.549,2.069-6.615,5.061-8.08c-0.038,0.355-0.061,0.714-0.061,1.08c0,5.523,4.478,10,10,10c0.901,0,1.771-0.13,2.602-0.354    C529.469,524.321,526.042,527,522,527z M530.86,519.526c-0.899,0.303-1.859,0.474-2.86,0.474c-4.963,0-9-4.037-9-9    c0-0.521,0.054-1.029,0.14-1.526c0.899-0.303,1.859-0.474,2.86-0.474c4.963,0,9,4.037,9,9    C531,518.521,530.946,519.029,530.86,519.526z M531.939,519.08c0.038-0.355,0.061-0.714,0.061-1.08c0-5.523-4.478-10-10-10    c-0.901,0-1.771,0.13-2.602,0.354c1.133-3.675,4.56-6.354,8.602-6.354c4.963,0,9,4.037,9,9    C537,514.549,534.931,517.615,531.939,519.08z"/></g></g>
<!-- <text x="0" y="45" fill="#000000" font-size="5px" font-weight="bold" font-family="'Helvetica Neue', Helvetica, Arial-Unicode, Arial, Sans-serif">Created by Hea Poh Lin</text><text x="0" y="50" fill="#000000" font-size="5px" font-weight="bold" font-family="'Helvetica Neue', Helvetica, Arial-Unicode, Arial, Sans-serif">from the Noun Project</text> -->
</svg>