<svg xmlns="http://www.w3.org/2000/svg" version="1.1" viewBox="-5.0 -10.0 110.0 135.0">
 <path d="m50 22.199c-15.301 0-27.801 12.5-27.801 27.801s12.5 27.801 27.801 27.801 27.801-12.5 27.801-27.801-12.5-27.801-27.801-27.801zm0 51.602c-13.102 0-23.801-10.699-23.801-23.801s10.699-23.801 23.801-23.801 23.801 10.699 23.801 23.801-10.699 23.801-23.801 23.801z"/>
 <path d="m45.301 18.398h9.3984c1.5 0 2.8984-0.89844 3.6016-2.1992 0.69922-1.3008 0.5-3-0.39844-4.3008l-4.6992-6.3008c-0.80078-1-2-1.6016-3.3008-1.6016-1.3008 0-2.5 0.60156-3.3008 1.6016l-4.6016 6.3008c-0.89844 1.1992-1.1016 2.8984-0.39844 4.3008 0.69922 1.4023 2.1992 2.1992 3.6992 2.1992zm4.5977-10.398h0.10156l4.6992 6.3008-0.10156 0.10156h-9.3984l-0.10156-0.10156z"/>
 <path d="m17.5 28.699c0.19922 1.5 1.3008 2.8008 2.6992 3.3008 0.39844 0.10156 0.89844 0.19922 1.3008 0.19922 1.1016 0 2.1016-0.39844 2.8984-1.1992l6.6016-6.6016c1.1016-1.1016 1.5-2.6992 1-4.1992s-1.6992-2.5-3.3008-2.6992l-7.8008-1.1016c-1.3008-0.19922-2.5 0.19922-3.5 1.1016-1 0.89844-1.3008 2.1992-1.1016 3.5zm2.8984-8.3984 7.8008 1.1016v0.10156l-6.6016 6.6016h-0.10156z"/>
 <path d="m18.398 54.699v-9.3984c0-1.5-0.89844-2.8984-2.1992-3.6016-1.3984-0.69922-3-0.60156-4.3008 0.39844l-6.3008 4.6992c-1 0.80078-1.6016 2-1.6016 3.3008 0 1.3008 0.60156 2.5 1.6016 3.3008l6.3008 4.6992c0.69922 0.5 1.6016 0.80078 2.3984 0.80078 0.60156 0 1.1992-0.10156 1.8008-0.39844 1.5039-0.89844 2.3008-2.3008 2.3008-3.8008zm-4 0-0.10156 0.10156-6.2969-4.6992v-0.10156l6.3008-4.6992 0.10156 0.10156z"/>
 <path d="m24.398 69c-1.1016-1.1016-2.6992-1.5-4.1992-1s-2.5 1.6992-2.6992 3.3008l-1.1016 7.8008c-0.19922 1.3008 0.19922 2.5 1.1016 3.5 0.80078 0.80078 1.8008 1.1992 2.8984 1.1992h0.60156l7.8008-1.1016c1.5-0.19922 2.8008-1.3008 3.3008-2.6992 0.5-1.5 0.10156-3.1016-1-4.1992zm3.7031 9.6016-7.8008 1.1016-0.10156-0.10156 1.1016-7.8008h0.10156l6.6016 6.6016z"/>
 <path d="m54.699 81.602h-9.3984c-1.5 0-2.8984 0.89844-3.6016 2.1992-0.69922 1.3008-0.5 3 0.39844 4.3008l4.6992 6.3008c0.80078 1 2 1.6016 3.3008 1.6016 1.3008 0 2.5-0.60156 3.3008-1.6016l4.6992-6.3008c0.89844-1.1992 1.1016-2.8984 0.39844-4.3008-0.69531-1.4023-2.2969-2.1992-3.7969-2.1992zm-4.5977 10.398h-0.10156l-4.6992-6.3008 0.10156-0.10156h9.3984l0.10156 0.10156z"/>
 <path d="m82.5 71.301c-0.19922-1.5-1.3008-2.8008-2.6992-3.3008-1.5-0.5-3.1016-0.10156-4.1992 1l-6.6016 6.6016c-1.1016 1.1016-1.5 2.6992-1 4.1992s1.6992 2.5 3.3008 2.6992l7.8008 1.1016h0.60156c1.1016 0 2.1016-0.39844 2.8984-1.1992 0.89844-0.89844 1.3008-2.1992 1.1016-3.5zm-2.8984 8.3984-7.8008-1.1016v-0.10156l6.6016-6.6016h0.10156z"/>
 <path d="m94.398 46.699-6.2969-4.6992c-1.1992-0.89844-2.8984-1.1016-4.3008-0.39844-1.3984 0.69922-2.1992 2.1016-2.1992 3.6016v9.3984c0 1.5 0.89844 2.8984 2.1992 3.6016 0.60156 0.30078 1.1992 0.39844 1.8008 0.39844 0.89844 0 1.6992-0.30078 2.3984-0.80078l6.3008-4.6992c1-0.80078 1.6016-2 1.6016-3.3008-0.003906-1.3008-0.50391-2.3008-1.5039-3.1016zm-2.3984 3.4023-6.3008 4.6992-0.10156-0.10156v-9.3984l0.10156-0.10156 6.3008 4.6992z"/>
 <path d="m75.602 31c0.80078 0.80078 1.8008 1.1992 2.8984 1.1992 0.39844 0 0.89844-0.10156 1.3008-0.19922 1.5-0.5 2.5-1.6992 2.6992-3.3008l1.1016-7.8008c0.19922-1.3008-0.19922-2.5-1.1016-3.5-0.89844-0.89844-2.1992-1.3008-3.5-1.1016l-7.8008 1.1016c-1.5 0.19922-2.8008 1.3008-3.3008 2.6992-0.5 1.5-0.10156 3.1016 1 4.1992zm-3.7031-9.6016 7.8008-1.1016 0.10156 0.10156-1.1016 7.8008h-0.10156l-6.6016-6.6016z"/>
<!-- <text x="0.0" y="117.5" font-size="5.0" font-weight="bold" font-family="Arbeit Regular, Helvetica, Arial-Unicode, Arial, Sans-serif" fill="#000000">Created by Reza Putra</text><text x="0.0" y="122.5" font-size="5.0" font-weight="bold" font-family="Arbeit Regular, Helvetica, Arial-Unicode, Arial, Sans-serif" fill="#000000">from Noun Project</text> -->
</svg>