<svg xmlns="http://www.w3.org/2000/svg" version="1.1" viewBox="-5.0 -10.0 110.0 135.0">
 <path d="m90.098 48.918c7.0117-5.6602 6.7891-19.516 6.7734-20.16l-0.035156-1.5625-1.5625 0.035157c-9.6328 0.22656-16.312 6.832-20.461 13-1.3438-1.4453-2.7773-2.7812-4.2773-4.0234-5.3164-17.344-26.305-18.758-27.203-18.812l-0.53125-0.03125-5.1523 3.5273 1.7656 2.5781 4.25-2.9102c2.75 0.28906 15.852 2.1602 21.867 12.047-6.9844-4.3164-15.094-6.6758-23.508-6.6758-15.887 0-30.707 8.5078-38.68 22.203l-0.45703 0.78516 0.45703 0.78516c5.9492 10.219 15.715 17.543 26.887 20.609 1.3945 2.4336 7.1992 11.5 16.574 12.293l1.6953 0.14453v-11.312c3.3086-0.47656 6.543-1.3203 9.6719-2.5312l-1.1289-2.9141c-4.7812 1.8516-9.8359 2.7891-15.02 2.7891-5.8086 0-11.457-1.2422-16.633-3.5 0.94531-1.3438 1.8828-2.9062 2.7109-4.6758 6.2539 0.42969 9.582 4.6367 9.7227 4.8164 0.30078 0.39844 0.76562 0.62109 1.2461 0.62109 0.16406 0 0.32813-0.027344 0.49219-0.078125 0.63281-0.21094 1.0664-0.80078 1.0703-1.4688 0.058594-6.2344 7.0117-10.312 7.082-10.355 0.54688-0.3125 0.85156-0.92578 0.76953-1.5508-0.078125-0.625-0.52344-1.1406-1.1328-1.3086-7.5938-2.1016-13.488-0.75391-16.766 0.48828 0.14453-1.3359 0.19922-2.7266 0.13281-4.1836-0.30078-6.5195-2.8359-11.613-5.2656-15.059 5.1602-2.2422 10.785-3.4727 16.57-3.4727 12.285 0 23.875 5.3828 31.805 14.766l1.3984 1.6562 1.1289-1.8516c3.3945-5.5781 9.1016-12.199 17.367-13.156-0.17188 4.0391-1.2031 14.336-7.2109 17.023l-3.1875 1.4258 3.1875 1.4258c6.0078 2.6875 7.0391 12.984 7.2109 17.023-8.2695-0.95703-13.973-7.5781-17.367-13.156l-1.1289-1.8516-1.3984 1.6562c-3.6445 4.3125-8.043 7.7852-13.066 10.324l1.4102 2.7891c4.7734-2.4102 9.0195-5.6094 12.648-9.5195 4.1484 6.168 10.828 12.773 20.461 12.996l1.5625 0.035156 0.035156-1.5625c0.015625-0.64453 0.23828-14.5-6.7734-20.16zm-44.734 22.855v7.457c-4.9492-1.1289-8.6758-5.1328-10.77-7.9688 2.4336 0.41016 4.9102 0.64844 7.4219 0.64844 1.125 0 2.2383-0.050781 3.3477-0.13281zm-2.1641-18.18c-1.9219 1.6758-4.2422 4.2734-5.2227 7.6562-1.832-1.4648-4.7461-3.1641-8.668-3.6602 0.23047-0.67969 0.42969-1.3906 0.61328-2.1172 1.5156-0.78516 6.3828-2.8906 13.277-1.8828zm-15.609-5.8633c0.32812 7.0547-2.4375 12.562-5.0742 16.172-6.4922-3.4414-12.074-8.5625-16.008-14.98 3.9453-6.4414 9.5508-11.574 16.07-15.016 2.2578 3.0742 4.7305 7.7539 5.0117 13.824z"/>
 <path d="m48.891 32.793-0.55859 3.0781c3.8867 0.70312 7.6016 2.0391 11.035 3.9727l1.5352-2.7227c-3.7383-2.1055-7.7773-3.5625-12.012-4.3281z"/>
 <path d="m42.016 35.305c1.2461 0 2.4961 0.066406 3.7188 0.19141l0.32422-3.1055c-1.3281-0.14062-2.6875-0.21094-4.043-0.21094z"/>
 <path d="m17.031 43.598h3.125v3.5742h-3.125z"/>
<!-- <text x="0.0" y="117.5" font-size="5.0" font-weight="bold" font-family="Arbeit Regular, Helvetica, Arial-Unicode, Arial, Sans-serif" fill="#000000">Created by Gung Yoga</text><text x="0.0" y="122.5" font-size="5.0" font-weight="bold" font-family="Arbeit Regular, Helvetica, Arial-Unicode, Arial, Sans-serif" fill="#000000">from Noun Project</text> -->
</svg>