<svg xmlns="http://www.w3.org/2000/svg" version="1.1" viewBox="-5.0 -10.0 110.0 135.0">
 <g>
  <path d="m27.852 92.707h0.53516v2.6055c0 0.86328 0.69922 1.5625 1.5625 1.5625s1.5625-0.69922 1.5625-1.5625v-2.6055h36.98v2.6055c0 0.86328 0.69922 1.5625 1.5625 1.5625 0.86328 0 1.5625-0.69922 1.5625-1.5625v-2.6055h0.53516c3.125 0 5.6719-2.543 5.6719-5.6719l-0.003907-78.238c0-3.125-2.543-5.6719-5.6719-5.6719h-44.301c-3.125 0-5.6719 2.543-5.6719 5.6719v78.242c0 3.125 2.543 5.6719 5.6719 5.6719zm-2.5469-83.91c0-1.4023 1.1406-2.5469 2.5469-2.5469h44.301c1.4023 0 2.5469 1.1406 2.5469 2.5469v26.305h-49.391zm0 29.43h49.391v48.812c0 1.4062-1.1406 2.5469-2.5469 2.5469h-44.301c-1.4023 0-2.5469-1.1406-2.5469-2.5469v-48.812z"/>
  <path d="m69.562 18.309c-0.86328 0-1.5625 0.69922-1.5625 1.5625v8.8867c0 0.86328 0.69922 1.5625 1.5625 1.5625s1.5625-0.69922 1.5625-1.5625v-8.8867c0-0.86328-0.69922-1.5625-1.5625-1.5625z"/>
  <path d="m69.562 58.902c0.86328 0 1.5625-0.69922 1.5625-1.5625v-13.18c0-0.86328-0.69922-1.5625-1.5625-1.5625s-1.5625 0.69922-1.5625 1.5625v13.18c0 0.86328 0.69922 1.5625 1.5625 1.5625z"/>
 </g>
<!-- <text x="0.0" y="117.5" font-size="5.0" font-weight="bold" font-family="Arbeit Regular, Helvetica, Arial-Unicode, Arial, Sans-serif" fill="#000000">Created by Cherry</text><text x="0.0" y="122.5" font-size="5.0" font-weight="bold" font-family="Arbeit Regular, Helvetica, Arial-Unicode, Arial, Sans-serif" fill="#000000">from Noun Project</text> -->
</svg>