<svg xmlns="http://www.w3.org/2000/svg" data-name="Layer 6" viewBox="0 0 500 625" x="0px" y="0px"><title>icons RGB</title><polygon points="173.38 143.06 160.96 143.06 160.96 165.82 138.19 165.82 138.19 178.25 160.96 178.25 160.96 201.03 173.38 201.03 173.38 178.25 196.15 178.25 196.15 165.82 173.38 165.82 173.38 143.06"/><polygon points="260.88 220.28 248.46 220.28 248.46 243.05 225.69 243.05 225.69 255.47 248.46 255.47 248.46 278.24 260.88 278.24 260.88 255.47 283.66 255.47 283.66 243.05 260.88 243.05 260.88 220.28"/><polygon points="335.9 294.72 323.48 294.72 323.48 317.49 300.7 317.49 300.7 329.91 323.48 329.91 323.48 352.68 335.9 352.68 335.9 329.91 358.67 329.91 358.67 317.49 335.9 317.49 335.9 294.72"/><polygon points="173.38 294.72 160.96 294.72 160.96 317.49 138.19 317.49 138.19 329.91 160.96 329.91 160.96 352.68 173.38 352.68 173.38 329.91 196.15 329.91 196.15 317.49 173.38 317.49 173.38 294.72"/><polygon points="335.9 143.06 323.48 143.06 323.48 165.82 300.7 165.82 300.7 178.25 323.48 178.25 323.48 201.03 335.9 201.03 335.9 178.25 358.67 178.25 358.67 165.82 335.9 165.82 335.9 143.06"/><polygon points="238.57 159.83 254.67 143.73 270.77 159.83 279.56 151.05 263.45 134.95 279.56 118.84 270.77 110.06 254.67 126.16 238.57 110.06 229.79 118.84 245.89 134.95 229.79 151.05 238.57 159.83"/><polygon points="145.72 274.15 154.5 265.37 138.4 249.26 154.5 233.15 145.72 224.37 129.62 240.47 113.52 224.37 104.73 233.15 120.84 249.26 104.73 265.37 113.52 274.15 129.62 258.04 145.72 274.15"/><polygon points="410.48 233.15 401.69 224.37 385.58 240.48 369.48 224.37 360.69 233.15 376.8 249.26 360.69 265.37 369.48 274.15 385.58 258.04 401.69 274.15 410.48 265.37 394.37 249.26 410.48 233.15"/><polygon points="270.77 340.17 254.67 356.27 238.57 340.17 229.79 348.95 245.89 365.05 229.79 381.15 238.57 389.94 254.67 373.83 270.77 389.94 279.56 381.15 263.45 365.05 279.56 348.95 270.77 340.17"/>
<!-- <text x="0" y="515" fill="#000000" font-size="5px" font-weight="bold" font-family="'Helvetica Neue', Helvetica, Arial-Unicode, Arial, Sans-serif">Created by TL</text><text x="0" y="520" fill="#000000" font-size="5px" font-weight="bold" font-family="'Helvetica Neue', Helvetica, Arial-Unicode, Arial, Sans-serif">from the Noun Project</text> -->
</svg>