<svg xmlns="http://www.w3.org/2000/svg" version="1.1" viewBox="-5.0 -10.0 110.0 135.0">
 <path d="m36.855 24.93h11.645v-4.8242c-1.707-0.3125-3.2344-1.1406-4.4141-2.3203-1.5195-1.5117-2.457-3.6055-2.457-5.918 0-2.3086 0.9375-4.4062 2.4531-5.918l0.09375-0.085938c1.5078-1.4648 3.5664-2.3672 5.8281-2.3672 2.3047 0 4.3984 0.9375 5.9141 2.457 1.5195 1.5117 2.457 3.6055 2.457 5.9141 0 2.3125-0.9375 4.4062-2.4531 5.9219l-0.09375 0.085938c-1.168 1.1328-2.6641 1.9297-4.3281 2.2305v4.8242h11.645c2.8867 0 5.5156 1.1875 7.418 3.0859 1.9141 1.9062 3.0938 4.5391 3.0938 7.4258v1.5078h6.0547c0.82812 0 1.5 0.67188 1.5 1.5v13.449c0 0.82812-0.67188 1.5-1.5 1.5h-6.0547v1.5039c0 2.8867-1.1875 5.5156-3.0938 7.4219-1.9023 1.9023-4.5352 3.0898-7.4219 3.0898h-26.289c-2.8867 0-5.5195-1.1836-7.4258-3.0898l-0.082031-0.089844c-1.8516-1.8984-3.0039-4.4883-3.0039-7.332v-1.5039h-6.0547c-0.82812 0-1.5-0.67188-1.5-1.5v-13.449c0-0.82812 0.67188-1.5 1.5-1.5h6.0547v-1.5078c0-2.8906 1.1836-5.5234 3.0859-7.4258 1.9023-1.9023 4.5312-3.0859 7.4258-3.0859zm6.1289 66.051h14.031v-4.1406h-14.031zm15.531 3h-17.031c-0.82812 0-1.5-0.67188-1.5-1.5v-7.1406c0-0.82812 0.67188-1.5 1.5-1.5h17.031c0.82812 0 1.5 0.67188 1.5 1.5v7.1406c0 0.82812-0.67188 1.5-1.5 1.5zm-12.238-39.293c-0.82812 0-1.5-0.67188-1.5-1.5s0.67188-1.5 1.5-1.5h7.4453c0.82812 0 1.5 0.67188 1.5 1.5s-0.67188 1.5-1.5 1.5zm7.5195-46.617c-0.96875-0.96875-2.3125-1.5703-3.7969-1.5703-1.4531 0-2.7695 0.57422-3.7305 1.5039l-0.066406 0.070313c-0.97266 0.97266-1.5742 2.3164-1.5742 3.7969 0 1.4844 0.60156 2.8281 1.5742 3.8008 0.96875 0.97266 2.3125 1.5742 3.7969 1.5742 1.4531 0 2.7695-0.57422 3.7305-1.5039l0.066406-0.070313c0.97266-0.97266 1.5742-2.3164 1.5742-3.8008 0-1.4805-0.60156-2.8242-1.5742-3.8008zm-13.406 26.27c1.3984 0 2.668 0.56641 3.5859 1.4844 0.91797 0.91797 1.4844 2.1875 1.4844 3.5859 0 1.3945-0.57031 2.6641-1.4883 3.582-0.91406 0.92187-2.1797 1.4883-3.582 1.4883-1.3984 0-2.668-0.57031-3.5859-1.4844-0.91797-0.91797-1.4844-2.1875-1.4844-3.5859 0-1.3984 0.56641-2.668 1.4844-3.5859l0.097656-0.089844c0.91016-0.86328 2.1367-1.3945 3.4883-1.3945zm1.4648 3.6055c-0.375-0.375-0.89453-0.60547-1.4648-0.60547-0.54297 0-1.0391 0.20703-1.4102 0.54688l-0.054688 0.058593c-0.375 0.375-0.60547 0.89453-0.60547 1.4648 0 0.57031 0.23438 1.0898 0.60547 1.4648 0.375 0.375 0.89453 0.60547 1.4648 0.60547s1.0898-0.23438 1.4648-0.60547 0.60547-0.89062 0.60547-1.4648c0-0.57031-0.23438-1.0898-0.60547-1.4648zm17.754-3.6055c1.3945 0 2.6641 0.56641 3.5781 1.4844 0.92188 0.91797 1.4922 2.1875 1.4922 3.5859 0 1.3984-0.57031 2.668-1.4844 3.5859-0.91797 0.91797-2.1875 1.4844-3.5859 1.4844-1.4023 0-2.668-0.57031-3.5859-1.4844l-0.089844-0.097656c-0.86328-0.91016-1.3945-2.1406-1.3945-3.4883 0-1.3984 0.56641-2.668 1.4844-3.5859 0.91797-0.91797 2.1875-1.4844 3.5859-1.4844zm1.4648 3.6055c-0.37109-0.375-0.89062-0.60547-1.4648-0.60547-0.57031 0-1.0898 0.23438-1.4648 0.60547-0.375 0.375-0.60547 0.89453-0.60547 1.4648 0 0.54297 0.20703 1.0391 0.54297 1.4062l0.0625 0.058594c0.375 0.375 0.89453 0.60547 1.4648 0.60547s1.0898-0.23438 1.4648-0.60547c0.375-0.375 0.60547-0.89453 0.60547-1.4648 0-0.57031-0.23438-1.0898-0.60547-1.4648zm-34.734 12.453v-10.449h-4.5547v10.449zm47.316-10.449v10.449h4.5547v-10.449zm-48.938 55.051c0 0.82812-0.67188 1.5-1.5 1.5s-1.5-0.67188-1.5-1.5v-5.293c0-5.3828 2.207-10.285 5.7578-13.84l0.007813-0.007813c3.5547-3.5508 8.4531-5.7539 13.836-5.7539h17.348c5.3828 0 10.285 2.207 13.84 5.7578l0.007813 0.007813c3.5508 3.5547 5.7539 8.4531 5.7539 13.836v5.293c0 0.82812-0.67188 1.5-1.5 1.5s-1.5-0.67188-1.5-1.5v-5.293c0-4.5664-1.8672-8.7188-4.875-11.727-3.0117-3.0117-7.1641-4.8789-11.73-4.8789h-17.348c-4.5664 0-8.7188 1.8672-11.727 4.875-3.0117 3.0117-4.8789 7.1641-4.8789 11.73v5.293zm38.422-67.07h-26.289c-2.0664 0-3.9414 0.84375-5.3047 2.207s-2.207 3.2383-2.207 5.3047v19.457c0 2.0273 0.82031 3.8789 2.1367 5.2344l0.070313 0.066407c1.3633 1.3633 3.2422 2.2109 5.3047 2.2109h26.289c2.0586 0 3.9375-0.85156 5.3008-2.2109 1.3633-1.3633 2.2148-3.2422 2.2148-5.3008v-19.457c0-2.0586-0.84766-3.9414-2.2109-5.3047-1.3594-1.3633-3.2383-2.207-5.3047-2.207z"/>
<!-- <text x="0.0" y="117.5" font-size="5.0" font-weight="bold" font-family="Arbeit Regular, Helvetica, Arial-Unicode, Arial, Sans-serif" fill="#000000">Created by Danang Marhendra</text><text x="0.0" y="122.5" font-size="5.0" font-weight="bold" font-family="Arbeit Regular, Helvetica, Arial-Unicode, Arial, Sans-serif" fill="#000000">from Noun Project</text> -->
</svg>