<svg xmlns="http://www.w3.org/2000/svg" data-name="Layer 2" viewBox="0 0 100 125" x="0px" y="0px"><title>Artboard 1</title><path d="M23.74707,60.46533a18.02031,18.02031,0,0,1,18,18,1,1,0,0,0,2,0,18.02031,18.02031,0,0,1,18-18,1,1,0,0,0,0-2,18.02031,18.02031,0,0,1-18-18,1,1,0,0,0-2,0,18.02031,18.02031,0,0,1-18,18,1,1,0,1,0,0,2Zm19-13.74951A20.09238,20.09238,0,0,0,55.49658,59.46533,20.09238,20.09238,0,0,0,42.74707,72.21484,20.09238,20.09238,0,0,0,29.99756,59.46533,20.09238,20.09238,0,0,0,42.74707,46.71582Zm19.62158-9.25049a6.38551,6.38551,0,0,1,6.37842,6.37793,1,1,0,0,0,2,0A6.38541,6.38541,0,0,1,77.125,37.46533a1,1,0,0,0,0-2,6.38551,6.38551,0,0,1-6.37793-6.37842,1,1,0,1,0-2,0,6.38562,6.38562,0,0,1-6.37842,6.37842,1,1,0,0,0,0,2Zm7.37842-4.41162a8.43434,8.43434,0,0,0,3.41113,3.41162,8.43612,8.43612,0,0,0-3.41113,3.41113,8.43434,8.43434,0,0,0-3.41162-3.41113A8.43255,8.43255,0,0,0,69.74707,33.05371Zm5.57715,32.83252a1,1,0,0,0,1,1,3.59218,3.59218,0,0,1,3.58789,3.58838,1,1,0,0,0,2,0A3.59218,3.59218,0,0,1,85.5,66.88623a1,1,0,0,0,0-2,3.59177,3.59177,0,0,1-3.58789-3.58789,1,1,0,1,0-2,0,3.59177,3.59177,0,0,1-3.58789,3.58789A1,1,0,0,0,75.32422,65.88623Zm5.58789-1.40137a5.63667,5.63667,0,0,0,1.40137,1.40137,5.63667,5.63667,0,0,0-1.40137,1.40137,5.63667,5.63667,0,0,0-1.40137-1.40137A5.63667,5.63667,0,0,0,80.91211,64.48486ZM63.5,69v3h3a1,1,0,0,1,0,2h-3v3a1,1,0,0,1-2,0V74h-3a1,1,0,0,1,0-2h3V69a1,1,0,0,1,2,0Zm-42,11V77a1,1,0,0,1,2,0v3h3a1,1,0,0,1,0,2h-3v3a1,1,0,0,1-2,0V82h-3a1,1,0,0,1,0-2Zm3-58a1,1,0,0,1,1-1h3V18a1,1,0,0,1,2,0v3h3a1,1,0,0,1,0,2h-3v3a1,1,0,0,1-2,0V23h-3A1,1,0,0,1,24.5,22Zm29-7a1,1,0,0,1,1-1h1V13a1,1,0,0,1,2,0v1h1a1,1,0,0,1,0,2h-1v1a1,1,0,0,1-2,0V16h-1A1,1,0,0,1,53.5,15Zm-40,26a1,1,0,0,1,1-1h1V39a1,1,0,0,1,2,0v1h1a1,1,0,0,1,0,2h-1v1a1,1,0,0,1-2,0V42h-1A1,1,0,0,1,13.5,41Zm61,42v1h1a1,1,0,0,1,0,2h-1v1a1,1,0,0,1-2,0V86h-1a1,1,0,0,1,0-2h1V83a1,1,0,0,1,2,0Z"/>
<!-- <text x="0" y="115" fill="#000000" font-size="5px" font-weight="bold" font-family="'Helvetica Neue', Helvetica, Arial-Unicode, Arial, Sans-serif">Created by Path Lord</text><text x="0" y="120" fill="#000000" font-size="5px" font-weight="bold" font-family="'Helvetica Neue', Helvetica, Arial-Unicode, Arial, Sans-serif">from the Noun Project</text> -->
</svg>